<?xml version="1.0" encoding="UTF-8" standalone="no"?>
<!-- Created with Inkscape (http://www.inkscape.org/) -->

<svg
   width="16.933332mm"
   height="16.933336mm"
   viewBox="0 0 16.933332 16.933336"
   version="1.1"
   id="svg1"
   xml:space="preserve"
   xmlns="http://www.w3.org/2000/svg"
   xmlns:svg="http://www.w3.org/2000/svg"><defs
     id="defs1" /><g
     id="layer1"
     transform="translate(-62.95609,-198.4328)"><path
       id="path24"
       style="fill:#9a9a9a;fill-opacity:1;stroke-width:0.887592;stroke-linecap:round;stroke-linejoin:round"
       d="m 71.422757,198.43279 a 8.4666662,8.4666662 0 0 0 -8.466667,8.46666 8.4666662,8.4666662 0 0 0 8.466667,8.46667 8.4666662,8.4666662 0 0 0 8.466667,-8.46667 8.4666662,8.4666662 0 0 0 -8.466667,-8.46666 z m 1.867586,4.35942 c 0.562668,0 1.107183,0.22286 1.507919,0.61443 0.397822,-0.0876 0.776946,-0.23791 1.128613,-0.44648 0.05784,-0.0343 0.13092,-0.029 0.183451,0.0129 0.0526,0.0418 0.07368,0.11171 0.05323,0.1757 -0.09124,0.28547 -0.240619,0.5462 -0.436666,0.76791 0.165589,-0.0479 0.327615,-0.10682 0.485242,-0.17673 0.0659,-0.0292 0.143335,-0.0112 0.189652,0.0439 0.04638,0.0551 0.05037,0.13443 0.01034,0.19431 -0.263565,0.39426 -0.587048,0.73717 -0.963249,1.0206 0.0018,0.0595 0.0026,0.11919 0.0026,0.17829 0,1.41473 -0.547153,2.84619 -1.500684,3.92792 -0.764669,0.86754 -2.13646,1.9017 -4.329451,1.9017 -1.115528,0 -2.201508,-0.31804 -3.140894,-0.92036 -0.06347,-0.0407 -0.09052,-0.11971 -0.06511,-0.19069 0.02541,-0.0709 0.09696,-0.11532 0.171565,-0.10645 0.150183,0.0178 0.303209,0.0269 0.455787,0.0269 0.731234,0 1.427971,-0.19985 2.037085,-0.58136 -0.734407,-0.1652 -1.341727,-0.70717 -1.577682,-1.44384 -0.01745,-0.0544 -0.0048,-0.11385 0.03307,-0.15658 0.03781,-0.0427 0.09535,-0.0624 0.151412,-0.0517 0.05438,0.0104 0.109049,0.0183 0.163814,0.0238 -0.637467,-0.38015 -1.054716,-1.07738 -1.054716,-1.85209 0,-0.01 2.9e-4,-0.0194 5.17e-4,-0.0289 0.0013,-0.0567 0.03193,-0.10876 0.08113,-0.13695 0.04917,-0.0282 0.109674,-0.0286 0.159163,-0.001 0.09218,0.0512 0.188827,0.0942 0.288355,0.12867 -0.327327,-0.38477 -0.51263,-0.87729 -0.51263,-1.39629 0,-0.38106 0.100619,-0.75517 0.291455,-1.08262 0.02674,-0.0459 0.07472,-0.076 0.127641,-0.0801 0.05289,-0.004 0.104444,0.0178 0.137976,0.0589 0.940907,1.15417 2.310952,1.87874 3.784782,2.00814 -0.01172,-0.0917 -0.01757,-0.18447 -0.01757,-0.27802 0,-1.18767 0.966168,-2.15387 2.153873,-2.15387 z" /></g></svg>
