<?xml version="1.0" encoding="UTF-8" standalone="no"?>
<!-- Created with Inkscape (http://www.inkscape.org/) -->

<svg
   width="16.93334mm"
   height="16.933336mm"
   viewBox="0 0 16.93334 16.933336"
   version="1.1"
   id="svg1"
   xml:space="preserve"
   xmlns="http://www.w3.org/2000/svg"
   xmlns:svg="http://www.w3.org/2000/svg"><defs
     id="defs1" /><g
     id="layer1"
     transform="translate(-85.082959,-198.31036)"><path
       id="circle24"
       style="fill:#9a9a9a;fill-opacity:1;stroke-width:0.887592;stroke-linecap:round;stroke-linejoin:round"
       d="m 93.549629,198.31034 a 8.4666662,8.4666662 0 0 0 -8.466667,8.46667 8.4666662,8.4666662 0 0 0 8.466667,8.46667 8.4666662,8.4666662 0 0 0 8.466671,-8.46667 8.4666662,8.4666662 0 0 0 -8.466671,-8.46667 z m -2.570386,4.55115 h 5.140771 c 1.416156,0 2.157906,0.19487 2.559536,0.67231 0.4035,0.47955 0.43356,1.21415 0.43356,2.27996 v 1.9265 c 0,1.22134 -0.19291,1.92644 -0.6444,2.35851 -0.44025,0.42134 -1.12061,0.59325 -2.348696,0.59325 h -5.140771 c -2.530034,0 -2.992582,-0.99381 -2.992582,-2.95176 v -1.9265 c 0,-1.01065 4.6e-5,-1.74096 0.390157,-2.23655 0.400125,-0.50831 1.153856,-0.71572 2.602425,-0.71572 z m 1.638143,2.29236 c -0.06064,0.002 -0.121062,0.0191 -0.174666,0.0517 -0.107174,0.0651 -0.1726,0.18162 -0.1726,0.30696 v 2.43241 c 0,0.12555 0.06573,0.24188 0.173116,0.30696 0.05703,0.0345 0.121501,0.0517 0.186035,0.0517 0.057,0 0.113695,-0.0135 0.165882,-0.0408 l 2.334741,-1.22008 c 0.118588,-0.0619 0.192897,-0.18445 0.192753,-0.31833 -1.79e-4,-0.13377 -0.07502,-0.25666 -0.193786,-0.31833 l -2.334225,-1.21181 c -0.05562,-0.0289 -0.11661,-0.0423 -0.17725,-0.0403 z" /></g></svg>
